<?xml version="1.0" encoding="UTF-8" standalone="no"?>
<svg
   class="Svg Svg--shopping-bag "
   width="20"
   height="20"
   viewBox="0 0 20 20"
   fill="none"
   version="1.1"
   id="svg1"
   sodipodi:docname="cart.svg"
   inkscape:version="1.3 (0e150ed, 2023-07-21)"
   xmlns:inkscape="http://www.inkscape.org/namespaces/inkscape"
   xmlns:sodipodi="http://sodipodi.sourceforge.net/DTD/sodipodi-0.dtd"
   xmlns="http://www.w3.org/2000/svg"
   xmlns:svg="http://www.w3.org/2000/svg">
  <defs
     id="defs1" />
  <sodipodi:namedview
     id="namedview1"
     pagecolor="#ffffff"
     bordercolor="#000000"
     borderopacity="0.25"
     inkscape:showpageshadow="2"
     inkscape:pageopacity="0.0"
     inkscape:pagecheckerboard="0"
     inkscape:deskcolor="#d1d1d1"
     inkscape:zoom="37.9"
     inkscape:cx="10"
     inkscape:cy="9.9868074"
     inkscape:window-width="1920"
     inkscape:window-height="1052"
     inkscape:window-x="1800"
     inkscape:window-y="0"
     inkscape:window-maximized="0"
     inkscape:current-layer="svg1" />
  <path
     d="M13.8889 6.66666V5.02777C13.8889 3.6384 13.1477 2.35458 11.9444 1.65989C10.7412 0.965211 9.25877 0.965211 8.05555 1.65989C6.85232 2.35458 6.1111 3.6384 6.1111 5.02777V8.91666C6.1111 9.22348 6.35983 9.47222 6.66666 9.47222C6.97348 9.47222 7.22221 9.22348 7.22221 8.91666V7.77777H11.6667V6.66666H7.22221V5.02777C7.22221 3.49365 8.46587 2.24999 9.99999 2.24999C11.5341 2.24999 12.7778 3.49365 12.7778 5.02777V8.88888C12.7778 9.19571 13.0265 9.44444 13.3333 9.44444C13.6401 9.44444 13.8889 9.19571 13.8889 8.88888V7.77777H16.6667V17.7778H3.33332V7.77777H4.99999V6.66666H2.22221V17.8278C2.22221 18.4138 2.69729 18.8889 3.28332 18.8889H16.7167C17.3027 18.8889 17.7778 18.4138 17.7778 17.8278V6.66666H13.8889Z"
     fill="black"
     id="path1"
     style="stroke:#000000;stroke-opacity:1;stroke-width:0.5;stroke-dasharray:none" />
</svg>
