<svg xmlns:xlink="http://www.w3.org/1999/xlink" class="Svg Svg--times-circle-solid " width="20" height="20" viewBox="0 0 20 20" fill="none" xmlns="http://www.w3.org/2000/svg">
      <path fill-rule="evenodd" clip-rule="evenodd" d="M1.11111 10C1.11111 5.0908 5.09081 1.11111 10 1.11111C12.3575 1.11111 14.6184 2.04762 16.2854 3.71461C17.9524 5.3816 18.8889 7.64252 18.8889 10C18.8889 14.9092 14.9092 18.8889 10 18.8889C5.09081 18.8889 1.11111 14.9092 1.11111 10ZM14.4444 14.5C14.7513 14.1932 14.7513 13.6957 14.4444 13.3889L11.1111 10.0444L14.5389 6.62778C14.7374 6.4293 14.8149 6.14001 14.7422 5.86888C14.6696 5.59775 14.4578 5.38597 14.1867 5.31332C13.9156 5.24067 13.6263 5.31819 13.4278 5.51667L10 8.94445L6.57223 5.47778C6.37374 5.2793 6.08445 5.20178 5.81332 5.27443C5.54219 5.34708 5.33042 5.55886 5.25777 5.82999C5.18512 6.10112 5.26263 6.39041 5.46111 6.58889L8.88889 10.0444L5.55556 13.4C5.35708 13.5985 5.27956 13.8878 5.35221 14.1589C5.42486 14.43 5.63664 14.6418 5.90777 14.7145C6.1789 14.7871 6.46819 14.7096 6.66667 14.5111L10 11.1667L13.3333 14.5C13.6402 14.8068 14.1376 14.8068 14.4444 14.5Z" fill="black"></path>
    </svg>