<svg xmlns:xlink="http://www.w3.org/1999/xlink" class="Svg Svg--window-close " width="20" height="20" viewBox="0 0 20 20" fill="none" xmlns="http://www.w3.org/2000/svg">
      <path d="M10.9978 9.96635L15.9478 5.01636C16.1785 4.74696 16.163 4.34537 15.9122 4.09456C15.6614 3.84375 15.2598 3.82824 14.9904 4.05895L10.0404 9.00894L5.09045 4.05216C4.82104 3.82145 4.41945 3.83696 4.16865 4.08777C3.91784 4.33858 3.90233 4.74017 4.13304 5.00957L9.08303 9.96635L4.12625 14.9163C3.93248 15.0823 3.84807 15.3428 3.90774 15.5909C3.9674 15.8389 4.16107 16.0326 4.40911 16.0923C4.65716 16.1519 4.91771 16.0675 5.08366 15.8737L10.0404 10.9238L14.9904 15.8737C15.2598 16.1045 15.6614 16.0889 15.9122 15.8381C16.163 15.5873 16.1785 15.1857 15.9478 14.9163L10.9978 9.96635Z" fill="black"></path>
    </svg>