<svg xmlns:xlink="http://www.w3.org/1999/xlink" class="Svg Svg--plus " width="20" height="20" viewBox="0 0 20 20" fill="none" xmlns="http://www.w3.org/2000/svg">
      <path d="M16.6667 9.44445H10.5555V3.33333C10.5555 3.02651 10.3068 2.77778 9.99999 2.77778C9.69317 2.77778 9.44444 3.02651 9.44444 3.33333V9.44445H3.33332C3.0265 9.44445 2.77777 9.69318 2.77777 10C2.77222 10.1461 2.83018 10.2874 2.9367 10.3875C3.04322 10.4877 3.18786 10.5368 3.33332 10.5222H9.44444V16.6667C9.44444 16.9735 9.69317 17.2222 9.99999 17.2222C10.3068 17.2222 10.5555 16.9735 10.5555 16.6667V10.5556H16.6667C16.9735 10.5556 17.2222 10.3068 17.2222 10C17.2222 9.69318 16.9735 9.44445 16.6667 9.44445Z" fill="black"></path>
    </svg>