<?xml version="1.0" encoding="UTF-8" standalone="no"?>
<svg
   class="Svg Svg--user-line "
   width="20"
   height="20"
   viewBox="0 0 20 20"
   fill="none"
   version="1.1"
   id="svg1"
   sodipodi:docname="profile.svg"
   inkscape:version="1.3 (0e150ed, 2023-07-21)"
   xmlns:inkscape="http://www.inkscape.org/namespaces/inkscape"
   xmlns:sodipodi="http://sodipodi.sourceforge.net/DTD/sodipodi-0.dtd"
   xmlns="http://www.w3.org/2000/svg"
   xmlns:svg="http://www.w3.org/2000/svg">
  <defs
     id="defs1" />
  <sodipodi:namedview
     id="namedview1"
     pagecolor="#ffffff"
     bordercolor="#000000"
     borderopacity="0.25"
     inkscape:showpageshadow="2"
     inkscape:pageopacity="0.0"
     inkscape:pagecheckerboard="0"
     inkscape:deskcolor="#d1d1d1"
     inkscape:zoom="37.9"
     inkscape:cx="10"
     inkscape:cy="9.9868074"
     inkscape:window-width="1920"
     inkscape:window-height="1052"
     inkscape:window-x="1800"
     inkscape:window-y="0"
     inkscape:window-maximized="0"
     inkscape:current-layer="svg1" />
  <path
     fill-rule="evenodd"
     clip-rule="evenodd"
     d="M10 9.44444C12.1478 9.44444 13.8889 7.70333 13.8889 5.55556C13.8889 3.40778 12.1478 1.66667 10 1.66667C7.85223 1.66667 6.11111 3.40778 6.11111 5.55556C6.11111 7.70333 7.85223 9.44444 10 9.44444ZM10.0028 10.5576C12.6227 10.5576 15.1272 11.6358 16.9278 13.5389C17.1189 13.7461 17.2242 14.0181 17.2222 14.3V17.2222C17.2222 17.8359 16.7248 18.3333 16.1111 18.3333H3.88889C3.27524 18.3333 2.77778 17.8359 2.77778 17.2222V14.3C2.77734 14.0174 2.88462 13.7452 3.07778 13.5389C4.87839 11.6358 7.38285 10.5576 10.0028 10.5576ZM3.88889 14.2944V17.2222H16.1111V14.2944C14.5199 12.619 12.3106 11.6703 10 11.6703C7.68936 11.6703 5.48006 12.619 3.88889 14.2944ZM12.7778 5.55556C12.7778 4.02143 11.5341 2.77778 10 2.77778C8.46588 2.77778 7.22222 4.02143 7.22222 5.55556C7.22222 7.08968 8.46588 8.33333 10 8.33333C11.5341 8.33333 12.7778 7.08968 12.7778 5.55556Z"
     fill="black"
     id="path1"
     style="stroke:#000000;stroke-opacity:1;stroke-width:0.5;stroke-dasharray:none" />
</svg>
