<?xml version="1.0" encoding="UTF-8" standalone="no"?>
<svg
   class="Svg Svg--search mr-s"
   width="20"
   height="20"
   viewBox="0 0 20 20"
   fill="none"
   version="1.1"
   id="svg1"
   sodipodi:docname="search.svg"
   inkscape:version="1.3 (0e150ed, 2023-07-21)"
   xmlns:inkscape="http://www.inkscape.org/namespaces/inkscape"
   xmlns:sodipodi="http://sodipodi.sourceforge.net/DTD/sodipodi-0.dtd"
   xmlns="http://www.w3.org/2000/svg"
   xmlns:svg="http://www.w3.org/2000/svg">
  <defs
     id="defs1" />
  <sodipodi:namedview
     id="namedview1"
     pagecolor="#ffffff"
     bordercolor="#000000"
     borderopacity="0.25"
     inkscape:showpageshadow="2"
     inkscape:pageopacity="0.0"
     inkscape:pagecheckerboard="0"
     inkscape:deskcolor="#d1d1d1"
     inkscape:zoom="37.9"
     inkscape:cx="10"
     inkscape:cy="9.9868074"
     inkscape:window-width="1920"
     inkscape:window-height="1052"
     inkscape:window-x="1800"
     inkscape:window-y="0"
     inkscape:window-maximized="0"
     inkscape:current-layer="svg1" />
  <path
     fill-rule="evenodd"
     clip-rule="evenodd"
     d="M8.51667 1.11111C4.52795 1.11111 1.29445 4.34461 1.29445 8.33333C1.29445 12.3221 4.52795 15.5556 8.51667 15.5556C12.5054 15.5556 15.7389 12.3221 15.7389 8.33333C15.7389 4.34461 12.5054 1.11111 8.51667 1.11111ZM8.51668 2.25C10.9777 2.24775 13.1976 3.72848 14.1409 6.00149C15.0842 8.2745 14.5651 10.892 12.8258 12.6329C11.0864 14.3739 8.46939 14.8954 6.19553 13.9541C3.92166 13.0129 2.4389 10.7943 2.4389 8.33333C2.45408 4.98208 5.16543 2.26825 8.51668 2.25ZM14.7945 13.8167L18.8889 17.9389C19.0288 18.0798 19.0829 18.2847 19.0309 18.4763C18.9788 18.668 18.8284 18.8173 18.6364 18.868C18.4444 18.9187 18.2399 18.8631 18.1 18.7222L14.0056 14.6L14.7945 13.8167Z"
     fill="black"
     id="path1"
     style="stroke:#000000;stroke-opacity:1;stroke-width:0.5;stroke-dasharray:none" />
</svg>
