<svg xmlns:xlink="http://www.w3.org/1999/xlink" class="Svg Svg--trash-line " width="20" height="20" viewBox="0 0 20 20" fill="none" xmlns="http://www.w3.org/2000/svg">
      <path fill-rule="evenodd" clip-rule="evenodd" d="M12.7778 3.25555H11.7222V2.22222H8.27778V3.25555H7.22223V2.22222C7.22149 1.62963 7.68593 1.14074 8.27778 1.11111H11.7222C12.3141 1.14074 12.7785 1.62963 12.7778 2.22222V3.25555ZM7.22223 7.22222H8.33334V15.5556H7.22223V7.22222ZM12.7778 7.22222H11.6667V15.5556H12.7778V7.22222ZM17.1 5H2.77778C2.47096 5 2.22223 4.75127 2.22223 4.44444C2.22223 4.13762 2.47096 3.88889 2.77778 3.88889H17.1C17.4068 3.88889 17.6556 4.13762 17.6556 4.44444C17.6556 4.75127 17.4068 5 17.1 5ZM4.92223 18.8889H15.0778C15.5095 18.8787 15.9195 18.6973 16.2175 18.3848C16.5155 18.0722 16.6771 17.654 16.6667 17.2222V6.23889H15.5556V17.2222C15.5663 17.3593 15.5219 17.4951 15.4322 17.5993C15.3425 17.7036 15.215 17.7678 15.0778 17.7778H4.92223C4.78505 17.7678 4.6575 17.7036 4.56782 17.5993C4.47814 17.4951 4.43374 17.3593 4.44445 17.2222V6.23889H3.33334V17.2222C3.3229 17.654 3.48447 18.0722 3.78247 18.3848C4.08047 18.6973 4.49047 18.8787 4.92223 18.8889Z" fill="#121212"></path>
    </svg>