<svg id="Layer_1" viewBox="0 0 24 24" xmlns="http://www.w3.org/2000/svg" data-name="Layer 1"><path d="m5 10s1 2 3 2c.805 0 1.46-.144 1.993-.353.629.224 1.302.353 2.007.353s1.378-.128 2.007-.353c.533.209 1.188.353 1.993.353 2 0 3-2 3-2-.804 0-1.391-.459-1.808-1.007.51-.882.808-1.903.808-2.993 0-3.309-2.691-6-6-6s-6 2.691-6 6c0 1.102.304 2.132.824 3.02-.423.532-1.016.98-1.824.98zm7 0c-1.877 0-3.445-1.304-3.874-3.051.22.022.438.051.66.051 2.619 0 4.939-1.515 6.061-3.803.711.722 1.153 1.711 1.153 2.803 0 2.206-1.794 4-4 4zm0-8c.395 0 .769.075 1.13.182-.764 1.692-2.447 2.818-4.344 2.818-.21 0-.42-.021-.628-.049.464-1.695 2.003-2.951 3.843-2.951zm9 17v5h-2v-5c0-1.654-1.346-3-3-3h-8c-1.654 0-3 1.346-3 3v5h-2v-5c0-2.757 2.243-5 5-5h8c2.757 0 5 2.243 5 5z"/></svg>