<?xml version="1.0" encoding="UTF-8" standalone="no"?>
<svg
   id="Layer_1"
   height="512"
   viewBox="0 0 24 24"
   width="512"
   data-name="Layer 1"
   version="1.1"
   sodipodi:docname="dice.svg"
   inkscape:version="1.3 (0e150ed, 2023-07-21)"
   xmlns:inkscape="http://www.inkscape.org/namespaces/inkscape"
   xmlns:sodipodi="http://sodipodi.sourceforge.net/DTD/sodipodi-0.dtd"
   xmlns="http://www.w3.org/2000/svg"
   xmlns:svg="http://www.w3.org/2000/svg">
  <defs
     id="defs1" />
  <sodipodi:namedview
     id="namedview1"
     pagecolor="#ffffff"
     bordercolor="#000000"
     borderopacity="0.25"
     inkscape:showpageshadow="2"
     inkscape:pageopacity="0.0"
     inkscape:pagecheckerboard="0"
     inkscape:deskcolor="#d1d1d1"
     inkscape:zoom="1.4804688"
     inkscape:cx="255.99999"
     inkscape:cy="255.99999"
     inkscape:window-width="1800"
     inkscape:window-height="1103"
     inkscape:window-x="0"
     inkscape:window-y="38"
     inkscape:window-maximized="1"
     inkscape:current-layer="Layer_1" />
  <path
     d="M 18.767478,23.483788 H 5.2958465 C 2.6399593,23.480623 0.48773073,21.340198 0.48454944,18.698876 V 5.3011235 C 0.48773082,2.6598014 2.6399595,0.51937558 5.2958465,0.51621171 H 18.767478 c 1.363919,0.001625 2.595008,0.56690739 3.470422,1.47422379 0.829234,0.8594528 1.339328,2.0258049 1.340875,3.310688 V 18.698876 c -0.0031,2.641322 -2.15541,4.781747 -4.811297,4.784912 z M 5.2958465,2.4301764 c -1.5943236,0 -2.8867783,1.2853669 -2.8867783,2.8709471 V 18.698876 c -1e-7,1.58558 1.2924546,2.870947 2.8867783,2.870947 H 18.767478 c 1.594323,0 2.886778,-1.285367 2.886778,-2.870947 V 5.3011235 c 0,-1.5855799 -1.292455,-2.8709467 -2.886778,-2.8709471 z M 11.069404,12 c 0,0.852641 1.036487,1.279489 1.642646,0.676655 0.606158,-0.602835 0.176953,-1.633639 -0.680388,-1.633638 -0.531441,10e-7 -0.962258,0.428457 -0.962258,0.956983 z M 6.2581058,7.2150882 c -1e-7,0.8526396 1.0364868,1.2794886 1.642645,0.6766545 C 8.5069092,7.2889084 8.0777063,6.2581058 7.2203651,6.2581059 6.6889239,6.258106 6.2581058,6.6865614 6.2581058,7.2150882 Z m 9.6225942,0 c 0,0.8526394 1.036486,1.2794884 1.642644,0.6766548 C 18.129504,7.2889091 17.7003,6.2581066 16.842961,6.2581059 16.311518,6.2581055 15.8807,6.6865611 15.8807,7.2150882 Z M 6.2581058,16.784912 c 9e-7,0.852639 1.0364877,1.279488 1.6426455,0.676653 0.6061577,-0.602834 0.1769547,-1.633636 -0.6803862,-1.633636 -0.5314416,0 -0.9622599,0.428456 -0.9622593,0.956983 z m 9.6225942,0 c 1e-6,0.852639 1.036487,1.279487 1.642644,0.676653 0.60616,-0.602833 0.176956,-1.633635 -0.680383,-1.633636 -0.531443,0 -0.962262,0.428456 -0.962261,0.956983 z"
     id="path1"
     style="fill:#000000;fill-opacity:1;stroke:#000000;stroke-width:0.590276;stroke-dasharray:none;stroke-opacity:1"
     sodipodi:nodetypes="ccccccscccssssssscsssssssssssssssssssss" />
</svg>
