<?xml version="1.0" encoding="UTF-8"?>
<svg xmlns="http://www.w3.org/2000/svg" id="Layer_1" data-name="Layer 1" viewBox="0 0 24 24">
  <path d="M22.865,14c-5.167,0-8.171,2.472-9.865,4.792v-3.882c2.833-.478,5-2.942,5-5.91,0-3.067,.929-5.628,.938-5.654l.53-1.443-1.533,.099c-.083,.005-.565,.049-1.382,.256,.124-1.58,.446-2.258,.446-2.258,0,0-2.5,0-5,1.5C9.5,0,7,0,7,0c0,0,.322,.678,.446,2.258-.817-.207-1.299-.251-1.382-.256l-1.533-.098,.53,1.442c.01,.025,.938,2.586,.938,5.654,0,2.967,2.167,5.431,5,5.91v3.882c-1.694-2.32-4.699-4.792-9.865-4.792H.002l.141,1.124c.788,6.305,6.718,8.438,10.613,8.809l1.244,.067,1.244-.067c3.895-.371,9.825-2.503,10.613-8.809l.141-1.124h-1.133ZM2.362,16.056c5.092,.478,7.319,3.888,8.186,5.833-2.385-.307-6.962-1.465-8.186-5.833ZM14.879,4.925c.661-.271,1.229-.464,1.696-.601-.28,1.16-.575,2.823-.575,4.675,0,.469-.081,.919-.23,1.338-.544-1.746-1.396-3.269-2.385-4.485,.494-.41,1.001-.726,1.494-.928Zm-6.879,4.075c0-1.852-.295-3.516-.575-4.675,.467,.137,1.035,.33,1.696,.601,2.017,.827,4.398,3.665,5.084,7.41-.633,.42-1.391,.665-2.205,.665-2.206,0-4-1.794-4-4Zm5.452,12.889c.866-1.945,3.094-5.355,8.186-5.833-1.224,4.368-5.801,5.526-8.186,5.833Z"/>
</svg>
