<?xml version="1.0" encoding="UTF-8" standalone="no"?>
<svg
   id="Layer_1"
   data-name="Layer 1"
   viewBox="0 0 24 24"
   version="1.1"
   sodipodi:docname="rose-thin.svg"
   inkscape:export-filename="rose-thin.svg"
   inkscape:export-xdpi="96"
   inkscape:export-ydpi="96"
   inkscape:version="1.3 (0e150ed, 2023-07-21)"
   xmlns:inkscape="http://www.inkscape.org/namespaces/inkscape"
   xmlns:sodipodi="http://sodipodi.sourceforge.net/DTD/sodipodi-0.dtd"
   xmlns="http://www.w3.org/2000/svg"
   xmlns:svg="http://www.w3.org/2000/svg">
  <defs
     id="defs1" />
  <sodipodi:namedview
     id="namedview1"
     pagecolor="#ffffff"
     bordercolor="#000000"
     borderopacity="0.25"
     inkscape:showpageshadow="2"
     inkscape:pageopacity="0.0"
     inkscape:pagecheckerboard="0"
     inkscape:deskcolor="#d1d1d1"
     inkscape:zoom="31.583333"
     inkscape:cx="11.968338"
     inkscape:cy="12.253298"
     inkscape:window-width="1392"
     inkscape:window-height="1103"
     inkscape:window-x="0"
     inkscape:window-y="38"
     inkscape:window-maximized="0"
     inkscape:current-layer="Layer_1" />
  <path
     d="m 22.917779,14.945559 c -6.168636,0 -9.135391,3.42833 -10.455331,5.80054 v -5.825391 c 2.939039,-0.24372 5.256817,-2.709595 5.256817,-5.7106983 0.131898,-4.2091911 0.853516,-5.5635107 1.21767,-6.7362349 -1.014088,0.08793 -0.75507,-0.038231 -2.511803,0.4195811 C 16.661211,1.1376147 16.670769,1.5485938 17.088447,0.60812064 15.840192,0.67884728 14.975206,0.36822351 11.984555,1.8353235 9.0044184,0.37491387 8.1289195,0.67597998 6.8988243,0.61289946 7.2935634,1.5505054 7.3098119,1.1452608 7.5439791,2.8943116 5.7862907,2.4365 6.0462642,2.562661 5.0321764,2.4747306 c 0.3631983,1.165078 1.0876832,2.5337341 1.21767,6.7362349 0,3.0011035 2.3177783,5.4660225 5.2568166,5.7106985 v 5.816789 C 10.30333,18.282135 6.5528302,14.632067 0.52087177,14.945559 0.93377084,21.951319 9.0082416,23.66405 11.984555,23.547447 14.96087,23.665007 23.051589,21.95323 23.463532,14.945559 H 22.918734 Z M 1.6314938,15.911837 C 8.3994066,16.160336 10.706672,20.846454 11.327931,22.56492 9.2156468,22.423467 2.7640989,21.529827 1.6314938,15.911837 Z M 17.55487,3.5929762 C 17.437369,4.0071796 17.29244,4.5747983 17.158852,5.2567899 16.94689,6.3388944 16.76348,7.7089395 16.76348,9.2109655 c 0,1.1211135 -0.388048,2.1523835 -1.036071,2.9686075 C 15.209374,9.6324581 14.032803,7.4705166 12.645003,5.9135747 13.333168,5.2655657 14.061476,4.7743023 14.772581,4.4837496 16.017012,3.9733708 16.961328,3.7191372 17.55487,3.5929762 Z M 15.655726,1.621232 C 15.569705,1.992069 15.486551,2.5196516 15.443541,3.2087584 15.122398,3.3215388 14.78405,3.4457883 14.411293,3.5987107 13.590274,3.9351401 12.75683,4.4942629 11.980733,5.227335 11.517177,4.7895945 11.040241,4.4273594 10.563304,4.1282049 12.500679,2.0427246 14.873893,1.7015163 15.656681,1.621232 Z M 11.032594,2.4355442 C 10.640722,2.7203623 10.149449,3.1275184 9.7088319,3.6436317 9.299756,3.4419652 8.9059726,3.3454329 8.5255702,3.2078027 8.4825598,2.5196516 8.3984508,1.9911132 8.313386,1.6202763 8.9461155,1.7034279 9.9602038,1.9261212 11.032594,2.4345884 Z M 7.2056313,9.2109655 c 0,-2.448671 -0.4874504,-4.5465763 -0.7913899,-5.6179893 0.5935424,0.126161 1.5378579,0.3803946 2.7822898,0.8907734 2.3684348,0.9701019 5.0427208,4.1852969 5.7050808,8.5101354 -0.80764,0.624115 -1.81886,0.995907 -2.917057,0.995907 -2.6350983,0 -4.7789237,-2.143781 -4.7789237,-4.7788265 z M 12.642136,22.56492 c 0.625083,-1.719422 2.942862,-6.405539 9.709818,-6.653083 -1.132605,5.61799 -7.592755,6.51163 -9.709818,6.653083 z"
     id="path1"
     style="fill:#000000;fill-opacity:1;stroke:#000000;stroke-width:0.656;stroke-dasharray:none;stroke-opacity:1"
     sodipodi:nodetypes="scccccccccccccccccsccccsscccccccccccccccccscccssccc"
     inkscape:label="path1" />
</svg>
